<?xml version="1.0" encoding="utf-8"?>
<!-- Generator: Adobe Illustrator 22.1.0, SVG Export Plug-In . SVG Version: 6.00 Build 0)  -->
<svg version="1.1" id="Capa_1" xmlns="http://www.w3.org/2000/svg" xmlns:xlink="http://www.w3.org/1999/xlink" x="0px" y="0px"
	 viewBox="0 0 422.8 422.8" style="enable-background:new 0 0 422.8 422.8;" xml:space="preserve">
<style type="text/css">
	.st0{fill:#FFFFFF;}
</style>
<g>
	<g>
		<path class="st0" d="M94,0C73,0.7,43.5,8.2,22.3,40C-10.4,89.2-8.4,183.8,51.9,250.9c56.1,62.5,139.4,131.5,140.1,132
			c1.8,1.6,44.4,39.8,107.6,39.8c6.2,0,12.4-0.4,18.4-1.1c68.4-8.3,93.5-52.1,102.4-77.5c4.6-13.1-3.1-29.3-16.8-35.4l-80.3-35.7
			c-3.8-1.7-8.4-2.6-13.3-2.6c-9.9,0-19.9,3.7-26,9.6l-25.3,24.5c-3.8,3.7-10.4,6.1-16.6,6.1c-2.6,0-5-0.5-6.7-1.4
			c-17.1-8.6-43.9-25.7-74.9-58.5c-27.4-29.1-40.5-49.1-46.6-60.7c-3.4-6.5,0.2-17.8,5.5-23.1l22.5-22.5c9.4-9.4,13.6-26.6,9.6-39.2
			L126,24.9C122.1,12.7,109.1,0,94,0z M131.6,134.4L109,156.9c-9.2,9.2-14.6,27.4-8.1,39.9c9.4,17.8,26.3,39.9,48.9,63.9
			c32.4,34.3,60.8,52.4,78.9,61.5c3.7,1.9,8.3,2.8,13.2,2.8c10,0,20.1-3.9,26.6-10.1l25.3-24.5c5-4.9,17-7.1,23.5-4.2l80.3,35.7
			c6.1,2.7,11.4,11,9.1,17.6c-7.8,22.3-29.8,60.7-90.6,68c-5.5,0.7-11.2,1-16.7,1c-57.2,0-97.7-35.9-98.2-36.3
			c-0.8-0.6-83.5-69.2-138.8-130.8C8.5,181.2,4.3,92.8,34.2,47.9c17.8-26.7,42.7-33,60.5-33.6c7.2,0,15.4,8,17.5,14.9l25.3,80.4
			C140,117.2,137.2,128.8,131.6,134.4z"/>
		<path class="st0" d="M278.8,122.8c-4.6-3.8-10.7-5.9-17-5.9c-8.3,0-16.2,3.6-21.2,9.6c0,0-1.4,1.8-3.2,3.9c-1.8,2.2-4.7,2.2-6.5,0
			l-3.2-3.9c-5-6-12.9-9.6-21.2-9.6c-6.3,0-12.4,2.1-17,5.9c-6.3,5.2-9.9,12.8-9.9,21c0,6.2,2.2,12.4,6.2,17.2l7.2,8.8
			c3.4,4.1,3.4,10.7,0,14.8l-7.2,8.8c-4,4.8-6.1,10.9-6.1,17.2c0,8.1,3.6,15.8,9.9,21c4.8,4,10.9,6.2,17.2,6.2
			c8.2,0,15.8-3.6,21-9.9c0,0,1.4-1.8,3.2-3.9c1.8-2.2,4.7-2.2,6.5,0l3.2,3.9c5,6,12.9,9.6,21.2,9.6c6.3,0,12.4-2.1,17-5.9
			c11.6-9.5,13.2-26.6,3.7-38.2l-7.2-8.8c-3.3-4.1-3.3-10.7,0-14.8l7.2-8.8c4.6-5.6,6.7-12.6,6-19.9
			C287.8,133.9,284.4,127.4,278.8,122.8z M256.7,169.8c-3.4,4.1-3.3,10.7,0,14.8l14.7,17.9c2.2,2.6,3.2,6,2.8,9.4
			c-0.3,3.4-2,6.5-4.6,8.6c-5,4.1-13.9,3.2-18-1.8l-11.5-14c-3.4-4.1-8.8-4.1-12.1,0l-11.5,14c-4.3,5.2-12.8,6-18,1.8
			c-3-2.5-4.7-6.1-4.7-9.9c0-3,1-5.8,2.9-8.1l14.7-17.9c3.4-4.1,3.4-10.7,0-14.8l-14.7-17.8c-1.9-2.3-2.9-5.1-2.9-8.1
			c0-3.8,1.7-7.4,4.6-9.9c2.3-1.9,5.1-2.9,8.1-2.9c3.8,0,7.4,1.7,9.9,4.7l11.5,14c3.3,4.1,8.8,4.1,12.1,0l11.5-14
			c4.1-5,13-5.9,18-1.8c2.6,2.2,4.3,5.2,4.6,8.6s-0.7,6.7-2.9,9.4L256.7,169.8z"/>
	</g>
</g>
</svg>
