<?xml version="1.0" encoding="utf-8"?>
<!-- Generator: Adobe Illustrator 22.1.0, SVG Export Plug-In . SVG Version: 6.00 Build 0)  -->
<svg version="1.1" id="Capa_1" xmlns="http://www.w3.org/2000/svg" xmlns:xlink="http://www.w3.org/1999/xlink" x="0px" y="0px"
	 viewBox="0 0 512 512" style="enable-background:new 0 0 512 512;" xml:space="preserve">
<style type="text/css">
	.st0{fill:#FFFFFF;}
</style>
<g>
	<g>
		<path class="st0" d="M161.3,353c-1.9-1.9-4.4-2.9-7.1-2.9s-5.2,1.1-7.1,2.9c-1.9,1.9-2.9,4.4-2.9,7.1c0,2.6,1.1,5.2,2.9,7.1
			c1.9,1.9,4.4,2.9,7.1,2.9s5.2-1.1,7.1-2.9c1.9-1.9,2.9-4.4,2.9-7.1C164.2,357.4,163.2,354.9,161.3,353z"/>
	</g>
</g>
<g>
	<g>
		<path class="st0" d="M496.2,364l-72.3-72.3C413.1,281,398.8,275,383.5,275c-15.3,0-29.6,5.9-40.4,16.7L317.9,317c0,0,0,0,0,0
			s0,0,0,0L307.9,327l-122-122l35.3-35.3c22.3-22.3,22.3-58.5,0-80.8l-72.2-72.2c-22.3-22.3-58.5-22.3-80.8,0L49.1,35.8
			c-64,64-64,168.2,0,232.3l70.3,70.3c3.9,3.9,10.2,3.9,14.1,0c3.9-3.9,3.9-10.2,0-14.1l-70.3-70.3C11.5,202.1,7.3,120.5,50.8,64
			l75.9,75.9c2,2,4.5,2.9,7.1,2.9s5.1-1,7.1-2.9c3.9-3.9,3.9-10.2,0-14.1L64.1,49l18.1-18.1c14.5-14.5,38-14.5,52.5,0l72.2,72.2
			c14.5,14.5,14.5,38,0,52.5L164.6,198c-1.9,1.9-2.9,4.4-2.9,7.1s1.1,5.2,2.9,7.1l136.1,136.1c3.9,3.9,10.2,3.9,14.1,0l10.1-10.1
			l124,124C423.9,481.5,393.3,492,361,492c-38.5,0-74.8-15-102-42.2l-71.3-71.3c-3.9-3.9-10.2-3.9-14.1,0c-3.9,3.9-3.9,10.2,0,14.1
			l71.3,71.3c31,31,72.3,48.1,116.1,48.1c43.9,0,85.1-17.1,116.1-48.1l19.1-19.1C507,434,513,419.7,513,404.4
			C513,389.2,507,374.8,496.2,364z M482.1,430.7l-18.1,18.1L339.1,324l18.1-18.1c7-7,16.3-10.9,26.3-10.9c9.9,0,19.2,3.9,26.3,10.9
			l72.3,72.3c7,7,10.9,16.3,10.9,26.3C493,414.3,489.1,423.7,482.1,430.7z"/>
	</g>
</g>
<g>
	<g>
		<path class="st0" d="M164.2,150.1c-1.9-1.9-4.4-2.9-7.1-2.9s-5.2,1.1-7.1,2.9c-1.9,1.9-2.9,4.4-2.9,7.1c0,2.6,1.1,5.2,2.9,7.1
			c1.9,1.9,4.4,2.9,7.1,2.9s5.2-1.1,7.1-2.9c1.9-1.9,2.9-4.4,2.9-7.1S166.1,152,164.2,150.1z"/>
	</g>
</g>
<g>
	<g>
		<path class="st0" d="M421.5,72.2c-1.2-17.1-15-31-32.1-32.2c-9.7-0.7-19,2.6-26.1,9.2c-7,6.5-11,15.8-11,25.3c0,5.5,4.5,10,10,10
			s10-4.5,10-10c0-4.1,1.7-7.9,4.7-10.7c3-2.8,6.9-4.2,11.1-3.9c7.2,0.5,13.1,6.3,13.6,13.6c0.5,7.3-4.3,13.8-11.4,15.4
			c-7.8,1.7-13.2,8.5-13.2,16.5v18c0,5.5,4.5,10,10,10s10-4.5,10-10v-15.6C412.5,103.3,422.7,88.7,421.5,72.2z"/>
	</g>
</g>
<g>
	<g>
		<path class="st0" d="M394,152c-1.9-1.9-4.4-2.9-7.1-2.9s-5.2,1.1-7.1,2.9c-1.9,1.9-2.9,4.4-2.9,7.1c0,2.6,1.1,5.2,2.9,7.1
			s4.4,2.9,7.1,2.9s5.2-1.1,7.1-2.9c1.9-1.9,2.9-4.4,2.9-7.1C397,156.4,395.9,153.9,394,152z"/>
	</g>
</g>
<g>
	<g>
		<path class="st0" d="M462,0H312c-27.6,0-50,22.4-50,50v114c0,27.6,22.4,50,50,50h37.9l29.3,38.1c1.9,2.5,4.8,3.9,7.9,3.9
			c0,0,0,0,0,0c3.1,0,6-1.5,7.9-3.9l29-38.1H462c27.6,0,50-22.4,50-50V50C512,22.4,489.5,0,462,0z M492,164L492,164
			c0,16.5-13.5,30-30,30h-42.8c-3.1,0-6.1,1.5-8,3.9l-24.1,31.6l-24.3-31.7c-1.9-2.5-4.8-3.9-7.9-3.9H312c-16.5,0-30-13.5-30-30V50
			c0-16.5,13.5-30,30-30h150c16.5,0,30,13.5,30,30V164z"/>
	</g>
</g>
</svg>
