<?xml version="1.0" encoding="utf-8"?>
<!-- Generator: Adobe Illustrator 22.1.0, SVG Export Plug-In . SVG Version: 6.00 Build 0)  -->
<svg version="1.1" id="Layer_1" xmlns="http://www.w3.org/2000/svg" xmlns:xlink="http://www.w3.org/1999/xlink" x="0px" y="0px"
	 viewBox="0 0 381 381" style="enable-background:new 0 0 381 381;" xml:space="preserve">
<style type="text/css">
	.st0{fill:#FFFFFF;}
</style>
<path class="st0" d="M370.1,231.9c-5.5,0-10,4.5-10,10v88.7c0,16.5-13.4,29.9-30,30H49.9c-16.5,0-29.9-13.4-30-30V70.3
	c0-16.5,13.4-29.9,30-30h88.7c5.5,0,10-4.5,10-10s-4.5-10-10-10H49.9C22.4,20.4,0,42.8,0,70.3v260.2c0,27.6,22.4,49.9,49.9,49.9
	h280.2c27.6,0,49.9-22.4,49.9-49.9v-88.7C380.1,236.4,375.6,231.9,370.1,231.9z"/>
<path class="st0" d="M156.1,179.4L302,33.5l47,47L203.2,226.4L156.1,179.4z"/>
<path class="st0" d="M132.4,250.2l52-14.4l-37.6-37.6L132.4,250.2z"/>
<path class="st0" d="M362,8.8c-9.8-9.7-25.6-9.7-35.3,0l-10.6,10.6l47,47l10.6-10.6c9.7-9.8,9.7-25.6,0-35.3L362,8.8z"/>
</svg>
