<?xml version="1.0" encoding="utf-8"?>
<!-- Generator: Adobe Illustrator 22.1.0, SVG Export Plug-In . SVG Version: 6.00 Build 0)  -->
<svg version="1.1" id="Capa_1" xmlns="http://www.w3.org/2000/svg" xmlns:xlink="http://www.w3.org/1999/xlink" x="0px" y="0px"
	 viewBox="0 0 60 60" style="enable-background:new 0 0 60 60;" xml:space="preserve">
<style type="text/css">
	.st0{fill:#FFFFFF;}
</style>
<g>
	<path class="st0" d="M54,58h-3v-4h-5V43.8c0-2.7-1.3-5.2-3.6-6.7L31.8,30l10.6-7.1c2.2-1.5,3.6-4,3.6-6.7V6h5V2h3c0.6,0,1-0.4,1-1
		s-0.4-1-1-1h-3h-1H10H9H6C5.4,0,5,0.4,5,1s0.4,1,1,1h3v4h5v10.2c0,2.7,1.3,5.2,3.6,6.7L28.2,30l-10.6,7.1c-2.2,1.5-3.6,4-3.6,6.7
		V54H9v4H6c-0.6,0-1,0.4-1,1s0.4,1,1,1h3h1h40h1h3c0.6,0,1-0.4,1-1S54.6,58,54,58z M11,4V2h38v2h-3H14H11z M18.7,21.3
		c-1.7-1.1-2.7-3-2.7-5V6h28v10.2c0,2-1,3.9-2.7,5L30,28.8L18.7,21.3z M16,43.8c0-2,1-3.9,2.7-5L30,31.2l11.3,7.5
		c1.7,1.1,2.7,3,2.7,5V54H16V43.8z M11,56h3h32h3v2H11V56z"/>
	<path class="st0" d="M20.9,17.9c-0.6-0.4-0.9-1-0.9-1.7V14c0-0.6-0.4-1-1-1s-1,0.4-1,1v2.2c0,1.4,0.7,2.6,1.8,3.4l4.6,3.1
		c0.2,0.1,0.4,0.2,0.6,0.2c0.3,0,0.6-0.2,0.8-0.4c0.3-0.5,0.2-1.1-0.3-1.4L20.9,17.9z"/>
	<path class="st0" d="M40.2,41.3l-4.6-3.1c-0.5-0.3-1.1-0.2-1.4,0.3c-0.3,0.5-0.2,1.1,0.3,1.4l4.6,3.1c0.6,0.4,0.9,1,0.9,1.7v2.2
		c0,0.6,0.4,1,1,1s1-0.4,1-1v-2.2C42,43.3,41.3,42,40.2,41.3z"/>
</g>
</svg>
