<?xml version="1.0" encoding="utf-8"?>
<!-- Generator: Adobe Illustrator 22.1.0, SVG Export Plug-In . SVG Version: 6.00 Build 0)  -->
<svg version="1.1" id="Layer_1" xmlns="http://www.w3.org/2000/svg" xmlns:xlink="http://www.w3.org/1999/xlink" x="0px" y="0px"
	 viewBox="0 0 129 129" style="enable-background:new 0 0 129 129;" xml:space="preserve">
<style type="text/css">
	.st0{fill:#FFFFFF;}
</style>
<g>
	<g>
		<path class="st0" d="M58.3,14.6c17.8,0,32.2,14.4,32.2,32.2c0,2.3,1.8,4.1,4.1,4.1c2.3,0,4.1-1.8,4.1-4.1
			c0-22.3-18.1-40.4-40.4-40.4S18,24.6,18,46.8v25.9v45.8c0,2.3,1.8,4.1,4.1,4.1h73.5c2.3,0,4.1-1.8,4.1-4.1V72.7
			c0-2.3-1.8-4.1-4.1-4.1H26.1V46.8C26.1,29.1,40.6,14.6,58.3,14.6z M91.5,76.8v37.6H26.1V76.8H91.5z"/>
		<circle class="st0" cx="58.9" cy="95.6" r="6.6"/>
	</g>
</g>
</svg>
