<?xml version="1.0" encoding="utf-8"?>
<!-- Generator: Adobe Illustrator 22.1.0, SVG Export Plug-In . SVG Version: 6.00 Build 0)  -->
<svg version="1.1" id="Capa_1" xmlns="http://www.w3.org/2000/svg" xmlns:xlink="http://www.w3.org/1999/xlink" x="0px" y="0px"
	 viewBox="0 0 512 512" style="enable-background:new 0 0 512 512;" xml:space="preserve">
<style type="text/css">
	.st0{fill:#FFFFFF;}
</style>
<g>
	<g>
		<path class="st0" d="M125.6,201.8c-33.2,0-60.2,27-60.2,60.2s27,60.2,60.2,60.2s60.2-27,60.2-60.2
			C185.8,228.8,158.8,201.8,125.6,201.8z M125.6,292.1c-16.6,0-30.1-13.5-30.1-30.1c0-16.6,13.5-30.1,30.1-30.1
			c16.6,0,30.1,13.5,30.1,30.1S142.2,292.1,125.6,292.1z"/>
	</g>
</g>
<g>
	<g>
		<rect x="267" y="217.2" class="st0" width="60.2" height="30.1"/>
	</g>
</g>
<g>
	<g>
		<rect x="357.3" y="217.2" class="st0" width="60.2" height="30.1"/>
	</g>
</g>
<g>
	<g>
		<rect x="267" y="277.4" class="st0" width="60.2" height="30.1"/>
	</g>
</g>
<g>
	<g>
		<rect x="357.3" y="277.4" class="st0" width="60.2" height="30.1"/>
	</g>
</g>
<g>
	<g>
		<rect x="267" y="98.2" class="st0" width="60.2" height="30.1"/>
	</g>
</g>
<g>
	<g>
		<rect x="357.3" y="98.2" class="st0" width="60.2" height="30.1"/>
	</g>
</g>
<g>
	<g>
		<rect x="267" y="158.4" class="st0" width="60.2" height="30.1"/>
	</g>
</g>
<g>
	<g>
		<rect x="357.3" y="158.4" class="st0" width="60.2" height="30.1"/>
	</g>
</g>
<g>
	<g>
		<path class="st0" d="M451.6,30.1V0H230.9v30.3h-61.2v114.4c-13.7-5.2-28.6-8-44.1-8C56.5,136.6,0.2,192.9,0.2,262
			c0,28.3,18.7,74.7,57.2,141.9c27.6,48.1,55.5,89.3,55.8,89.7l12.4,18.3l12.4-18.3c0.2-0.3,18.4-27.1,39.8-62.7h333.9V30.3h0
			L451.6,30.1z M125.6,458c-34.8-53.7-95.3-155.3-95.3-196c0-52.5,42.7-95.3,95.3-95.3c52.5,0,95.3,42.7,95.3,95.3
			C220.9,302.7,160.5,404.3,125.6,458z M481.7,401H357.3v-62.2h-30.1V401H195.5C232.8,335.4,251,289.9,251,262
			c0-41.4-20.2-78.1-51.2-101V60.4H261V30.1h160.5v30l60.2,0.2V401z"/>
	</g>
</g>
</svg>
